<svg xmlns="http://www.w3.org/2000/svg" width="50.484" height="11.516" viewBox="0 0 50.484 11.516">
  <g id="fullbiz" transform="translate(-899.961 -340.641)">
    <g id="fullbiz-2" data-name="fullbiz" transform="translate(-349.156 -2146)">
      <path id="full" d="M7.234-9.375,6.156-9.508a3.291,3.291,0,0,0-2.023.418,2.335,2.335,0,0,0-.469,1.73v.125H6.492A.471.471,0,0,1,6.84-7.1a.471.471,0,0,1,.137.348v.93a.458.458,0,0,1-.137.344.478.478,0,0,1-.348.133H3.664V-.477a.458.458,0,0,1-.137.344A.469.469,0,0,1,3.188,0H1.438a.465.465,0,0,1-.344-.133A.465.465,0,0,1,.961-.477V-7.359a4.047,4.047,0,0,1,.992-3.09,5.166,5.166,0,0,1,3.484-.91,11.437,11.437,0,0,1,1.789.094,1.323,1.323,0,0,1,.641.23A.441.441,0,0,1,8-10.719v.859a.471.471,0,0,1-.137.348.461.461,0,0,1-.34.137ZM8.641-3.6V-8.078a.471.471,0,0,1,.137-.348.461.461,0,0,1,.34-.137h1.75a.461.461,0,0,1,.34.137.471.471,0,0,1,.137.348V-3.6q0,1.875,1.484,1.875a3.142,3.142,0,0,0,2.1-1.125V-8.078a.471.471,0,0,1,.137-.348.461.461,0,0,1,.34-.137h1.742a.471.471,0,0,1,.348.137.471.471,0,0,1,.137.348v7.6a.461.461,0,0,1-.137.34A.471.471,0,0,1,17.148,0H15.406a.461.461,0,0,1-.34-.137.461.461,0,0,1-.137-.34v-.5A4.373,4.373,0,0,1,12.066.156,3.4,3.4,0,0,1,9.594-.77,3.786,3.786,0,0,1,8.641-3.6ZM19.555-.477V-10.719a.471.471,0,0,1,.137-.348.461.461,0,0,1,.34-.137h1.75a.461.461,0,0,1,.34.137.471.471,0,0,1,.137.348V-.477a.461.461,0,0,1-.137.34.461.461,0,0,1-.34.137h-1.75a.461.461,0,0,1-.34-.137A.461.461,0,0,1,19.555-.477Zm4.625,0V-10.719a.471.471,0,0,1,.137-.348.461.461,0,0,1,.34-.137h1.75a.461.461,0,0,1,.34.137.471.471,0,0,1,.137.348V-.477a.461.461,0,0,1-.137.34.461.461,0,0,1-.34.137h-1.75a.461.461,0,0,1-.34-.137A.461.461,0,0,1,24.18-.477Z" transform="translate(1248.156 2498)" fill="#969"/>
      <path id="biz" d="M.961-10.719a.471.471,0,0,1,.137-.348.461.461,0,0,1,.34-.137h1.75a.461.461,0,0,1,.34.137.471.471,0,0,1,.137.348v2.4a7.623,7.623,0,0,1,2.258-.4A4.1,4.1,0,0,1,8.977-7.574a4.5,4.5,0,0,1,1.133,3.3q0,4.43-4.961,4.43A11.469,11.469,0,0,1,2.8-.1,6.293,6.293,0,0,1,.961-.719Zm2.7,4.2v4.609a6.776,6.776,0,0,0,1.711.18,1.76,1.76,0,0,0,1.5-.6,3.251,3.251,0,0,0,.457-1.945,3.315,3.315,0,0,0-.449-1.949,1.77,1.77,0,0,0-1.52-.605A5.924,5.924,0,0,0,3.664-6.516Zm7.891-3.68v-.266a.9.9,0,0,1,.238-.656.884.884,0,0,1,.66-.242h.969a.9.9,0,0,1,.656.238.884.884,0,0,1,.242.66v.266a.9.9,0,0,1-.238.656.884.884,0,0,1-.66.242h-.969a.887.887,0,0,1-.656-.242A.887.887,0,0,1,11.555-10.2Zm.031,9.719V-7.891a.458.458,0,0,1,.137-.344.469.469,0,0,1,.34-.133h1.75a.458.458,0,0,1,.344.137.469.469,0,0,1,.133.34V-.477a.458.458,0,0,1-.137.344.469.469,0,0,1-.34.133h-1.75a.465.465,0,0,1-.344-.133A.465.465,0,0,1,11.586-.477ZM15.68-7.148v-.93a.471.471,0,0,1,.137-.348.471.471,0,0,1,.348-.137h7.117a.458.458,0,0,1,.344.137.478.478,0,0,1,.133.348v.75A1.617,1.617,0,0,1,23.2-6.2l-4.258,4.3h4.4a.471.471,0,0,1,.348.137.471.471,0,0,1,.137.348v.93a.461.461,0,0,1-.137.34A.471.471,0,0,1,23.344,0h-7.18a.471.471,0,0,1-.348-.137.461.461,0,0,1-.137-.34v-.758a1.627,1.627,0,0,1,.563-1.133l4.109-4.3H16.164a.471.471,0,0,1-.348-.137A.461.461,0,0,1,15.68-7.148Z" transform="translate(1275.773 2498)" fill="#fe9900"/>
    </g>
  </g>
</svg>
